<?xml version="1.0" standalone="no"?>
<!DOCTYPE svg PUBLIC "-//W3C//DTD SVG 20010904//EN"
 "http://www.w3.org/TR/2001/REC-SVG-20010904/DTD/svg10.dtd">
<svg version="1.0" xmlns="http://www.w3.org/2000/svg"
 width="306.000000pt" height="169.000000pt" viewBox="0 0 306.000000 169.000000"
 preserveAspectRatio="xMidYMid meet">

<g transform="translate(0.000000,169.000000) scale(0.100000,-0.100000)"
fill="#000000" stroke="none">
<path d="M795 1216 c-128 -41 -235 -129 -289 -237 -33 -66 -64 -175 -52 -186
3 -3 27 11 54 31 27 20 55 36 62 36 7 0 34 -16 60 -35 26 -19 50 -35 53 -35 3
0 8 15 11 34 13 69 99 152 176 169 22 5 94 87 102 115 2 5 -15 35 -37 65 -44
62 -62 68 -140 43z"/>
<path d="M990 1171 l41 -59 -37 -52 c-30 -42 -34 -54 -23 -61 8 -5 19 -9 25
-9 30 0 105 -63 132 -110 l29 -51 12 47 c13 49 64 158 87 185 26 29 -80 110
-197 149 -32 11 -70 20 -84 20 l-26 0 41 -59z"/>
<path d="M1494 1211 c-158 -57 -257 -157 -304 -309 -31 -99 -28 -114 29 -156
27 -20 53 -36 59 -36 6 0 34 17 62 38 35 26 53 47 60 72 21 76 97 154 163 167
15 3 29 9 32 13 2 3 -13 31 -34 60 l-39 54 39 51 c22 29 39 55 39 58 0 12 -54
6 -106 -12z"/>
<path d="M1627 1183 c-18 -27 -37 -54 -41 -61 -4 -7 8 -33 29 -63 29 -38 52
-57 99 -78 62 -28 119 -82 137 -129 9 -24 12 -20 39 57 15 45 40 100 54 121
14 22 26 44 26 49 0 31 -135 113 -225 137 -74 20 -80 18 -118 -33z"/>
<path d="M2220 1216 c-129 -36 -224 -112 -283 -224 -31 -59 -73 -190 -63 -199
1 -2 25 13 52 32 27 19 53 35 59 35 6 0 33 -16 60 -36 l50 -35 12 28 c7 15 12
33 13 39 1 27 78 98 139 128 49 23 74 43 100 79 l34 49 -40 56 c-45 63 -60 69
-133 48z"/>
<path d="M2379 1213 c5 -10 23 -36 39 -58 l30 -39 -39 -58 -39 -57 40 -12 c71
-21 160 -118 160 -173 0 -17 26 -44 81 -82 l38 -26 33 21 c18 12 46 32 62 45
l29 24 -17 67 c-44 176 -161 298 -335 349 -74 22 -95 21 -82 -1z"/>
<path d="M507 770 c-56 -40 -57 -43 -51 -78 28 -159 127 -293 265 -356 56 -27
157 -52 166 -42 3 3 -12 29 -34 59 l-41 53 39 54 39 54 -58 26 c-68 32 -114
81 -136 147 -16 45 -69 99 -117 118 -9 3 -39 -12 -72 -35z"/>
<path d="M1926 774 c-33 -25 -54 -52 -74 -97 -33 -71 -80 -117 -146 -142 l-46
-18 40 -55 39 -56 -33 -45 c-55 -77 -55 -75 0 -68 27 4 82 23 122 43 131 64
220 180 256 333 l14 62 -52 39 c-29 22 -57 40 -63 40 -6 0 -31 -16 -57 -36z"/>
<path d="M1150 690 c-16 -58 -74 -118 -146 -151 -47 -22 -70 -40 -99 -79 l-38
-51 38 -55 c21 -30 42 -57 47 -60 13 -8 118 16 173 41 74 33 159 115 194 188
32 67 76 196 69 202 -2 3 -27 -11 -56 -30 -28 -19 -55 -35 -60 -35 -4 0 -24
12 -43 26 -65 49 -67 49 -79 4z"/>
<path d="M2562 685 c-16 -61 -82 -127 -148 -149 -39 -13 -58 -27 -87 -66 -20
-27 -37 -55 -37 -61 0 -7 18 -37 41 -67 l41 -54 46 7 c143 21 279 123 342 257
29 60 57 165 47 174 -3 3 -27 -11 -55 -30 -27 -20 -55 -36 -62 -36 -7 0 -34
16 -60 35 -26 19 -50 35 -52 35 -2 0 -9 -20 -16 -45z"/>
<path d="M1376 633 c-10 -32 -34 -89 -54 -126 l-35 -68 28 -29 c49 -51 201
-119 267 -120 23 0 102 105 94 125 -18 47 -74 103 -119 119 -58 21 -112 66
-138 118 -11 21 -21 38 -22 38 -2 0 -11 -26 -21 -57z"/>
<path d="M2082 622 c-12 -37 -37 -93 -56 -124 l-34 -56 32 -30 c68 -63 145
-100 246 -117 50 -8 51 -17 -14 74 l-29 41 41 54 42 55 -49 16 c-56 18 -117
73 -137 122 -8 18 -16 33 -17 33 -2 0 -13 -31 -25 -68z"/>
</g>
</svg>
