<?xml version="1.0" standalone="no"?>
<!DOCTYPE svg PUBLIC "-//W3C//DTD SVG 20010904//EN"
 "http://www.w3.org/TR/2001/REC-SVG-20010904/DTD/svg10.dtd">
<svg version="1.0" xmlns="http://www.w3.org/2000/svg"
 width="225.000000pt" height="225.000000pt" viewBox="0 0 225.000000 225.000000"
 preserveAspectRatio="xMidYMid meet">

<g transform="translate(0.000000,225.000000) scale(0.100000,-0.100000)"
fill="#000000" stroke="none">
<path d="M705 2180 c3 -5 14 -11 23 -11 9 -1 4 -5 -13 -9 -23 -6 -25 -8 -8 -9
21 -1 44 -21 24 -21 -7 0 -11 -90 -13 -259 l-3 -259 30 -5 c17 -3 31 -4 32 -3
1 1 3 126 3 276 1 271 1 275 -20 292 -24 19 -65 25 -55 8z"/>
<path d="M603 2153 c-10 -3 -12 -48 -11 -181 l2 -177 3 164 c2 95 8 170 14
177 6 7 20 15 32 17 19 4 19 4 -3 5 -14 0 -31 -2 -37 -5z"/>
<path d="M273 2138 c-22 -11 -23 -15 -23 -165 0 -153 0 -154 21 -142 23 12
171 8 201 -5 13 -6 15 -3 11 12 -6 23 -52 39 -63 22 -5 -8 -31 -11 -74 -8 -36
1 -66 0 -66 -4 0 -5 -4 -8 -10 -8 -6 0 -10 52 -10 135 l0 135 35 17 c19 9 38
14 41 10 4 -3 9 -62 11 -129 3 -68 6 -124 7 -125 1 -2 17 -6 34 -9 l32 -6 0
135 c0 131 -1 135 -22 141 -35 9 -100 6 -125 -6z"/>
<path d="M1593 2000 c-35 -14 -27 -20 10 -8 17 6 34 13 36 14 8 7 -24 3 -46
-6z"/>
<path d="M1410 1980 c30 -4 66 -10 80 -14 24 -7 24 -6 6 8 -14 11 -39 16 -80
15 l-61 -2 55 -7z"/>
<path d="M1645 1985 c-5 -2 -27 -6 -48 -10 -26 -4 -35 -10 -30 -18 4 -7 11
-46 14 -87 l6 -75 1 67 c2 72 20 108 54 108 16 0 18 -11 18 -105 0 -104 0
-105 -24 -105 -13 0 -27 7 -30 16 -6 15 -8 15 -25 0 -34 -31 -41 -94 -40 -373
0 -248 2 -273 22 -337 12 -38 29 -72 37 -76 17 -9 104 -30 107 -26 1 1 -4 44
-12 96 -8 52 -15 151 -16 220 -1 69 -4 115 -6 104 -4 -22 -29 -34 -70 -34 -13
0 -23 3 -24 8 0 4 -2 15 -4 26 -7 38 5 48 56 44 62 -4 60 15 -2 23 -46 5 -38
16 16 21 l30 3 5 217 c5 214 5 217 30 243 24 26 25 27 6 41 -19 13 -48 17 -71
9z"/>
<path d="M1328 1949 c-26 -10 -26 -11 -21 -87 7 -99 13 -105 13 -14 0 62 3 73
21 82 41 22 49 7 49 -88 l0 -89 53 9 c28 5 58 14 65 20 15 13 17 154 2 163
-19 12 -155 15 -182 4z"/>
<path d="M1748 1893 c-15 -34 -24 -785 -11 -848 7 -33 13 -41 36 -43 32 -4 32
-5 10 44 -23 54 -33 412 -12 425 8 5 20 7 27 4 7 -2 12 4 12 15 0 10 5 22 10
25 16 10 12 -29 -7 -66 -14 -27 -18 -67 -21 -187 -4 -160 3 -244 18 -207 5 11
9 36 9 56 1 28 6 38 20 42 15 4 18 11 14 27 -4 16 -3 21 5 16 18 -11 32 37 31
102 -2 55 -2 56 -9 17 -7 -40 -7 -40 -9 15 -4 92 -17 105 -29 30 l-11 -65 3
95 c5 118 -9 332 -22 355 -15 28 -21 5 -27 -101 -12 -206 -29 -219 -31 -26 -1
130 5 162 32 162 14 0 15 8 9 48 -14 100 -25 115 -47 65z"/>
<path d="M1220 1876 c14 -18 13 -19 -14 -12 -65 16 -83 17 -121 4 -48 -16 -61
-48 -20 -48 18 0 29 6 32 20 6 23 33 27 33 5 0 -19 60 -21 60 -2 1 7 6 5 14
-5 7 -10 18 -18 25 -18 18 0 13 46 -6 61 -17 13 -17 13 -3 -5z"/>
<path d="M273 1809 c-38 -11 -42 -23 -13 -41 11 -7 20 -20 20 -30 0 -9 3 -19
8 -21 4 -3 7 9 7 25 0 17 6 33 13 35 8 3 12 -6 12 -26 0 -17 4 -31 8 -31 4 0
8 12 7 27 0 19 6 29 19 31 16 3 18 -1 14 -27 -4 -24 -1 -31 12 -31 10 0 32 -3
49 -6 27 -6 30 -4 24 11 -4 13 2 25 23 41 22 18 26 26 16 36 -15 15 -176 21
-219 7z m167 -64 c0 -8 -4 -15 -10 -15 -5 0 -10 7 -10 15 0 8 5 15 10 15 6 0
10 -7 10 -15z"/>
<path d="M1051 1786 c-22 -8 -31 -15 -23 -20 7 -4 12 -33 12 -76 0 -59 -3 -71
-20 -80 -11 -6 -31 -35 -46 -65 -14 -30 -32 -61 -39 -69 -12 -12 -6 -15 41
-21 37 -4 60 -3 69 5 15 12 47 7 44 -7 -1 -4 5 -24 13 -43 22 -49 32 -116 19
-125 -7 -3 -11 2 -11 14 0 18 -6 21 -39 21 -36 0 -40 3 -51 35 -6 19 -15 37
-20 40 -5 3 -4 -8 2 -25 14 -40 6 -109 -17 -143 -23 -36 -31 -27 -11 12 9 16
16 41 16 56 0 22 -4 25 -39 25 -37 0 -40 2 -48 38 -8 33 -9 29 -9 -35 0 -58
-4 -78 -20 -100 -25 -33 -82 -47 -69 -16 13 30 18 83 7 83 -5 0 -12 9 -15 20
-4 16 -11 19 -36 14 -23 -5 -31 -3 -31 7 0 11 -2 11 -10 -1 -7 -11 -10 -11
-10 -2 0 7 -4 11 -9 8 -5 -4 -12 0 -14 6 -3 7 -6 4 -7 -7 -1 -20 -1 -20 -15
-1 -11 14 -15 16 -15 5 0 -12 -2 -12 -10 1 -8 13 -10 12 -10 -3 0 -10 -4 -16
-8 -13 -5 3 -14 -18 -21 -47 -6 -29 -19 -61 -28 -72 l-16 -20 8 20 c4 11 10
47 13 81 4 62 -16 123 -51 152 -10 9 -8 0 5 -28 39 -78 34 -165 -13 -224 -29
-37 -45 -32 -18 6 15 20 24 51 27 86 4 49 3 54 -12 49 -10 -4 -71 -7 -137 -7
-111 0 -119 -1 -119 -19 0 -11 -4 -23 -10 -26 -5 -3 -10 3 -10 14 0 26 -10 51
-21 51 -5 0 -9 -11 -9 -25 0 -28 -27 -101 -35 -93 -2 2 0 22 6 43 14 49 6 113
-21 165 -26 52 -31 51 -13 -2 8 -23 13 -55 11 -72 -3 -30 -5 -31 -48 -30 -25
0 -58 2 -75 5 l-30 4 0 -95 0 -95 169 4 169 4 -6 -22 c-5 -19 -2 -21 26 -16
120 20 175 25 274 25 74 0 114 4 119 12 5 7 3 8 -7 3 -12 -8 -12 -6 0 8 11 14
31 17 101 17 97 0 121 -11 101 -49 -7 -12 -11 -93 -11 -206 0 -156 -2 -187
-15 -191 -19 -8 -19 -65 0 -119 11 -28 15 -86 15 -197 0 -87 3 -158 6 -158 3
0 14 5 25 10 31 17 22 -4 -11 -24 -38 -22 -99 -14 -79 10 8 10 9 21 2 37 -6
12 -8 38 -6 57 l5 35 -39 -40 c-35 -36 -158 -141 -222 -189 -51 -39 30 43 132
131 106 93 114 111 81 174 -57 112 -173 163 -283 124 -48 -17 -54 -7 -11 18
42 26 54 53 52 122 -2 33 2 66 7 74 8 13 169 47 178 37 3 -2 -28 -10 -69 -17
l-73 -12 0 -82 0 -83 48 -5 c27 -4 69 -18 94 -32 25 -14 40 -19 34 -12 -6 8
-8 17 -4 21 4 4 6 38 4 76 l-3 69 39 3 38 3 3 96 c3 108 -6 129 -58 129 -16 0
-35 3 -44 6 -11 4 -16 0 -16 -12 0 -9 -3 -14 -6 -11 -4 3 -15 2 -25 -3 -13 -8
-20 -6 -28 7 -10 17 -10 17 -11 1 0 -14 -8 -18 -32 -17 l-33 1 30 7 30 7 -30
7 c-21 5 -37 19 -50 42 -30 58 -50 64 -21 8 35 -70 35 -140 1 -200 -16 -26
-35 -45 -50 -49 -23 -6 -25 -10 -25 -73 0 -38 -6 -88 -13 -113 l-14 -44 81 4
c74 3 86 1 135 -25 52 -27 101 -76 89 -89 -3 -3 -21 11 -39 30 -31 35 -54 45
-61 27 -2 -5 -43 -39 -93 -76 -49 -37 -91 -69 -93 -70 -2 -2 6 -21 17 -44 12
-22 21 -51 21 -63 l0 -23 -21 25 c-15 18 -19 20 -15 7 16 -50 18 -123 3 -157
l-15 -35 0 75 c1 89 -21 141 -78 188 -74 62 -197 69 -276 17 l-43 -29 45 -8
c24 -4 66 -21 93 -38 26 -16 45 -25 42 -20 -3 6 1 10 9 10 9 0 16 7 16 15 0 8
12 18 26 21 24 6 25 8 8 17 -9 5 -38 16 -63 23 -25 7 -39 13 -30 13 8 1 39 -6
67 -14 29 -9 57 -13 63 -9 11 6 59 -33 59 -49 0 -5 -9 -20 -20 -34 -13 -17
-18 -33 -14 -47 6 -19 5 -20 -11 -6 -17 14 -18 13 -11 -5 15 -39 23 -118 16
-151 l-8 -34 68 0 c38 0 81 5 97 11 15 5 69 51 119 101 l92 91 96 -8 97 -7 44
41 c25 23 53 41 64 41 11 0 91 -11 178 -25 87 -14 177 -25 201 -25 38 0 45 4
63 35 21 35 21 35 94 35 41 0 77 4 80 10 3 5 16 10 28 10 21 1 21 1 3 15 -27
21 -11 34 34 28 42 -6 54 9 28 35 -21 21 -47 13 -80 -24 -33 -35 -34 -35 -83
-26 l-50 10 51 1 c27 0 55 6 62 13 7 7 12 40 12 79 l0 68 -32 3 -33 3 -3 73
c-3 68 -1 73 20 81 13 5 30 5 40 0 22 -12 38 -11 38 1 0 6 -7 10 -15 10 -8 0
-18 8 -23 18 -15 29 -23 134 -13 190 9 61 1 60 -14 -1 -9 -38 -13 -42 -40 -41
-66 3 -117 12 -124 20 -3 5 -15 14 -25 20 -30 16 -30 30 3 66 l29 33 26 -24
c33 -31 32 -28 -4 51 -39 88 -50 185 -50 455 l0 223 -42 0 c-52 0 -39 17 16
22 58 4 59 28 2 28 -78 0 -80 -10 -84 -300 -2 -135 1 -270 5 -300 8 -55 8 -55
46 -58 48 -4 48 -20 0 -24 l-38 -3 -3 -145 c-3 -169 7 -203 71 -233 l37 -19 0
-104 c0 -82 -3 -104 -14 -104 -21 0 -26 23 -26 111 0 73 -2 79 -21 79 -35 0
-58 19 -84 70 -24 47 -25 58 -25 210 0 129 -3 160 -14 160 -7 0 -16 14 -20 31
-10 50 -7 56 14 30 l20 -23 0 98 c0 69 -3 94 -10 84 -9 -13 -11 -13 -20 0 -5
8 -10 26 -10 40 0 14 -7 36 -15 50 -13 23 -14 15 -15 -87 0 -64 4 -114 10
-118 19 -11 11 -52 -11 -58 -15 -4 -23 1 -31 19 -15 32 -22 30 -52 -9 -52 -68
-59 -105 -52 -305 6 -182 6 -183 40 -255 19 -40 39 -78 44 -85 5 -7 65 -21
138 -32 205 -31 184 -20 184 -104 0 -59 -4 -78 -21 -100 -11 -14 -25 -26 -30
-26 -5 0 0 9 11 20 15 15 20 33 20 77 0 44 -3 54 -12 45 -16 -16 -68 -15 -272
4 -207 20 -249 39 -66 31 141 -7 146 -3 16 12 -49 6 -92 13 -95 16 -11 12 25
25 66 25 l42 0 -20 35 c-22 36 -33 46 -23 20 5 -12 -3 -15 -35 -15 l-42 0 1
57 c2 63 -9 214 -17 226 -2 4 -22 7 -44 7 -21 0 -39 5 -39 10 0 6 18 10 39 10
22 0 43 4 46 10 3 5 3 59 -1 120 -6 92 -9 108 -21 99 -22 -19 -63 5 -63 36 0
23 4 25 46 25 42 0 45 -2 39 -22 -3 -13 4 -4 15 18 30 59 63 87 113 93 l42 6
3 65 c4 75 -8 122 -42 173 l-25 36 31 16 c17 8 43 15 57 15 14 0 38 12 54 25
30 27 35 37 12 29 -16 -6 -19 6 -17 61 1 27 0 26 -11 -10 l-13 -40 -57 2 -57
1 0 -31 c0 -24 -3 -28 -10 -17 -15 23 -12 83 6 108 9 13 26 22 41 22 17 0 36
11 53 31 17 21 35 32 53 32 21 0 27 4 27 22 0 18 -4 21 -25 17 -20 -3 -24 -1
-19 11 12 33 -142 49 -215 23z m69 -82 c0 -87 -16 -154 -39 -161 -9 -3 -23 -7
-31 -10 -10 -3 0 -12 27 -23 63 -28 85 -78 91 -207 4 -87 2 -103 -10 -103 -13
0 -16 18 -20 93 -5 116 -32 180 -82 197 -18 6 -42 8 -52 5 -16 -5 -15 -3 3 10
17 13 21 23 16 45 -4 21 1 37 16 56 17 21 21 41 21 94 0 74 3 80 37 80 22 0
23 -3 23 -76z m94 48 c-1 -6 -2 -30 -2 -52 -2 -28 -6 -40 -17 -40 -12 0 -15
13 -15 56 0 47 3 55 18 52 9 -2 17 -9 16 -16z m236 -112 c-20 -13 -67 -13 -75
0 -4 6 12 10 42 10 35 0 44 -3 33 -10z m10 -169 c0 -12 -29 -23 -41 -15 -5 3
-7 10 -4 15 8 12 45 12 45 0z m0 -71 c0 -28 -2 -30 -40 -30 -28 0 -40 4 -40
14 0 33 13 46 46 46 31 0 34 -3 34 -30z m-2 -67 c2 -9 -9 -13 -37 -13 -39 0
-50 8 -34 24 11 11 66 2 71 -11z m2 -93 c0 -5 -18 -10 -40 -10 -22 0 -40 5
-40 10 0 6 18 10 40 10 22 0 40 -4 40 -10z m-1007 -87 c-7 -2 -21 -2 -30 0
-10 3 -4 5 12 5 17 0 24 -2 18 -5z m560 0 c-7 -2 -19 -2 -25 0 -7 3 -2 5 12 5
14 0 19 -2 13 -5z m265 -125 c3 -15 -4 -18 -47 -18 -36 0 -51 4 -51 13 0 23
12 28 55 25 29 -2 41 -8 43 -20z m-16 -76 c-12 -8 -72 -4 -72 4 0 2 19 4 43 4
25 0 37 -4 29 -8z m8 -52 c0 -5 -15 -10 -34 -10 -19 0 -38 5 -41 10 -4 6 10
10 34 10 23 0 41 -4 41 -10z m-10 -50 c0 -5 -18 -10 -41 -10 -24 0 -38 4 -34
10 3 6 22 10 41 10 19 0 34 -4 34 -10z m378 -88 c3 -22 1 -23 -52 -21 -34 2
-56 7 -56 14 0 23 26 36 65 33 33 -2 41 -7 43 -26z m-358 -5 c0 -9 -12 -11
-40 -9 -22 2 -40 8 -40 13 0 5 18 9 40 9 26 0 40 -5 40 -13z m-76 -40 c3 -12
30 -51 60 -86 l55 -63 -28 -24 c-16 -13 -32 -24 -35 -24 -16 0 -76 143 -76
180 0 43 14 54 24 17z m306 -137 c0 -110 0 -110 24 -110 35 0 39 12 37 100 -2
64 1 80 18 101 22 26 26 18 12 -27 -5 -16 -11 -55 -14 -86 l-4 -58 49 0 c51 0
59 -10 34 -43 -13 -16 -24 -18 -95 -11 l-81 7 0 118 c0 73 4 119 10 119 6 0
10 -43 10 -110z m-93 -45 c2 -1 -4 -10 -12 -21 -10 -13 -17 -16 -22 -7 -5 6
-20 15 -36 18 -41 11 -23 24 26 18 23 -3 43 -7 44 -8z m-738 -191 c-13 -14
-37 -35 -54 -46 -20 -14 -15 -6 17 26 49 49 78 64 37 20z m639 -91 c-10 -2
-28 -2 -40 0 -13 2 -5 4 17 4 22 1 32 -1 23 -4z m95 -10 c-13 -2 -35 -2 -50 0
-16 2 -5 4 22 4 28 0 40 -2 28 -4z"/>
<path d="M592 1703 c-1 -7 -15 -13 -31 -13 -17 0 -33 -5 -36 -10 -4 -6 -10 -8
-14 -5 -5 2 -40 9 -79 15 -105 17 -234 -12 -202 -44 5 -5 10 -39 10 -73 l0
-64 -60 6 c-138 12 -185 14 -159 6 14 -5 88 -11 165 -14 76 -2 122 -3 102 0
l-38 4 0 69 c0 68 0 68 30 75 17 4 30 11 30 16 0 5 12 9 26 9 14 0 23 -4 20
-9 -3 -5 20 -12 52 -16 70 -9 87 -18 47 -25 -29 -5 -30 -7 -33 -67 l-3 -62
-47 -4 c-27 -2 -8 -4 43 -5 l90 -2 -3 65 c-4 75 6 95 49 95 26 0 29 -4 29 -30
0 -30 1 -31 38 -24 48 9 53 14 14 14 -30 0 -31 1 -35 53 -2 28 -4 46 -5 40z"/>
<path d="M1878 1689 c-13 -7 -18 -22 -17 -52 1 -32 3 -36 8 -17 3 14 8 -27 12
-90 l5 -115 2 131 c2 140 4 144 53 144 18 0 19 -10 21 -147 l2 -148 3 143 c3
129 5 143 21 140 15 -3 18 -20 22 -128 l5 -125 5 132 c4 105 2 134 -8 138 -23
9 -116 5 -134 -6z"/>
<path d="M1295 1670 c-3 -5 -1 -10 4 -10 6 0 11 5 11 10 0 6 -2 10 -4 10 -3 0
-8 -4 -11 -10z"/>
<path d="M1178 1623 c7 -3 16 -2 19 1 4 3 -2 6 -13 5 -11 0 -14 -3 -6 -6z"/>
<path d="M805 1590 c3 -5 8 -10 11 -10 2 0 4 5 4 10 0 6 -5 10 -11 10 -5 0 -7
-4 -4 -10z"/>
<path d="M886 1581 c-12 -13 -15 -27 -10 -45 3 -14 3 -33 0 -42 -5 -14 -9 -14
-23 -3 -15 13 -15 12 -2 -8 8 -13 16 -23 19 -23 16 1 28 20 34 55 4 22 14 50
22 63 13 20 13 22 -4 22 -10 0 -27 -8 -36 -19z"/>
<path d="M603 1567 c-24 -5 -43 -15 -43 -22 0 -17 31 -28 44 -15 16 16 26 12
26 -13 0 -21 -5 -24 -47 -26 -73 -2 -64 -11 12 -11 53 0 71 4 81 17 7 10 16
14 20 10 5 -4 2 -12 -5 -16 -18 -11 40 -25 68 -16 47 15 99 -108 88 -213 -4
-39 -3 -52 5 -44 14 14 14 127 -1 182 -8 27 -28 59 -51 82 -33 33 -44 38 -84
38 -28 0 -46 5 -46 11 0 8 22 10 70 7 72 -5 91 2 70 27 -15 18 -139 19 -207 2z"/>
<path d="M1266 1495 l-39 -35 41 0 c41 0 42 1 42 35 0 19 -1 35 -2 35 -2 -1
-21 -16 -42 -35z"/>
<path d="M1982 1480 c0 -19 2 -27 5 -17 2 9 2 25 0 35 -3 9 -5 1 -5 -18z"/>
<path d="M1294 1359 c-3 -6 -1 -16 5 -22 8 -8 11 -5 11 11 0 24 -5 28 -16 11z"/>
<path d="M808 1129 c-12 -13 -32 -19 -60 -19 -32 0 -39 -3 -28 -10 8 -5 36
-10 62 -10 41 0 50 -4 72 -32 14 -18 26 -29 26 -25 0 5 -12 24 -26 42 -26 35
-25 55 3 55 12 0 13 -3 4 -14 -10 -12 -8 -17 8 -26 24 -12 27 -3 9 35 -13 30
-45 32 -70 4z"/>
<path d="M175 1110 c-33 -4 -86 -8 -117 -9 -32 -1 -58 -5 -58 -10 0 -11 90
-21 180 -19 l75 2 -85 5 -85 6 100 9 c67 6 93 11 80 17 -11 4 -22 7 -25 7 -3
-1 -32 -4 -65 -8z"/>
<path d="M580 1114 c0 -11 35 -34 52 -34 16 0 18 3 9 14 -10 12 -61 29 -61 20z"/>
<path d="M461 1074 c59 -64 82 -155 55 -217 -19 -46 -30 -48 -22 -3 8 39 -2
89 -15 80 -5 -2 -18 0 -29 6 -16 9 -22 8 -26 -5 -5 -12 -10 -13 -20 -5 -15 13
-382 -14 -396 -28 -5 -5 -7 -54 -6 -109 l3 -100 135 28 c74 15 180 39 235 53
97 24 132 27 84 6 -20 -9 -17 -9 16 -4 59 9 95 31 111 69 16 40 19 99 4 90
-11 -7 -56 40 -66 70 -10 32 -43 74 -67 86 -20 10 -19 8 4 -17z m-112 -169
c-7 -6 -217 -35 -248 -34 -14 1 26 9 89 19 123 19 166 23 159 15z"/>
<path d="M518 1083 c7 -3 16 -2 19 1 4 3 -2 6 -13 5 -11 0 -14 -3 -6 -6z"/>
<path d="M143 993 c15 -2 37 -2 50 0 12 2 0 4 -28 4 -27 0 -38 -2 -22 -4z"/>
<path d="M1741 929 c-14 -39 -14 -50 0 -26 8 13 24 17 76 17 58 0 64 -2 58
-17 -15 -39 -26 -141 -20 -187 5 -43 4 -48 -9 -37 -8 7 -18 33 -22 57 -7 46
-24 71 -24 35 0 -33 -48 -29 -60 5 -19 49 -14 56 30 49 36 -6 40 -5 40 13 0
16 -5 20 -24 16 -14 -2 -31 2 -39 11 -13 13 -16 13 -21 -1 -10 -25 -7 -126 5
-166 l10 -38 58 0 c84 0 95 16 99 136 5 122 -7 144 -76 144 -27 0 -53 5 -59
11 -7 7 -14 1 -22 -22z"/>
<path d="M293 743 c-23 -4 -23 -7 -23 -153 l0 -149 -27 -16 c-55 -31 18 -5 81
29 60 32 82 56 51 56 -9 0 -13 5 -10 10 3 6 0 10 -7 10 -9 0 -9 3 2 10 13 9
13 10 0 10 -13 0 -13 1 0 10 12 8 10 10 -10 10 -25 1 -25 1 -5 16 14 11 16 18
8 21 -17 6 -17 23 0 23 8 0 14 7 14 15 0 8 -4 15 -7 15 -4 0 -6 20 -4 45 3 48
0 50 -63 38z"/>
<path d="M525 540 c-16 -7 -13 -9 18 -9 20 -1 37 4 37 9 0 12 -27 12 -55 0z"/>
<path d="M473 494 c-36 -15 -52 -34 -29 -34 15 0 86 38 86 46 0 7 -25 2 -57
-12z"/>
<path d="M390 430 c-13 -9 -13 -10 0 -9 8 1 26 5 40 9 l25 8 -25 1 c-14 0 -32
-4 -40 -9z"/>
<path d="M1378 383 c7 -3 16 -2 19 1 4 3 -2 6 -13 5 -11 0 -14 -3 -6 -6z"/>
<path d="M69 313 c-13 -16 -12 -17 4 -4 9 7 17 15 17 17 0 8 -8 3 -21 -13z"/>
<path d="M65 276 c-16 -7 -39 -23 -49 -35 -19 -20 -18 -22 12 -84 40 -81 66
-106 92 -89 11 7 27 12 36 12 10 0 14 5 10 15 -4 10 1 15 15 15 11 0 17 5 14
10 -4 6 6 10 22 11 15 0 22 3 16 6 -25 9 -13 23 15 17 31 -7 52 -30 52 -57 0
-13 -5 -17 -16 -13 -8 3 -12 2 -9 -4 3 -6 -1 -10 -9 -10 -9 0 -16 -4 -16 -9 0
-5 -10 -11 -22 -15 -19 -5 -21 -8 -8 -16 11 -7 7 -10 -20 -10 -29 -1 -32 -2
-17 -11 9 -5 43 -9 75 -7 l57 3 3 43 c2 30 -5 60 -23 100 -32 70 -58 99 -110
123 -47 22 -79 23 -120 5z"/>
<path d="M330 165 c7 -17 15 -59 18 -94 7 -68 26 -91 35 -44 9 44 -11 118 -39
144 l-25 24 11 -30z"/>
</g>
</svg>
